<?xml version="1.0" encoding="UTF-8" standalone="no"?>
<svg
   xmlns:dc="http://purl.org/dc/elements/1.1/"
   xmlns:cc="http://creativecommons.org/ns#"
   xmlns:rdf="http://www.w3.org/1999/02/22-rdf-syntax-ns#"
   xmlns:svg="http://www.w3.org/2000/svg"
   xmlns="http://www.w3.org/2000/svg"
   height="32"
   width="32"
   xml:space="preserve"
   enable-background="new 0 0 10 13"
   viewBox="0 0 32 32"
   y="0px"
   x="0px"
   id="Layer_1"
   version="1.1"><metadata
     id="metadata9"><rdf:RDF><cc:Work
         rdf:about=""><dc:format>image/svg+xml</dc:format><dc:type
           rdf:resource="http://purl.org/dc/dcmitype/StillImage" /><dc:title></dc:title></cc:Work></rdf:RDF></metadata><defs
     id="defs7" /><path
     id="path3"
     d="m 21.347458,22.415254 -10,0 0,-12.9999998 10,0 0,12.9999998 z m -1.1,-11.9 -7.8,0 0,1.9 7.8,0 0,-1.9 z m -5.9,6 -1.9,0 0,1.9 1.9,0 0,-1.9 z m 0,-3 -1.9,0 0,1.9 1.9,0 0,-1.9 z m 1.1,1.8 1.9,0 0,-1.8 -1.9,0 0,1.8 z m 3,0 1.9,0 0,-1.8 -1.9,0 0,1.8 z m -3,3 1.9,0 0,-1.8 -1.9,0 0,1.8 z m -1.1,1.1 -1.9,0 0,1.9 1.9,0 0,-1.9 z m 1.1,1.9 1.9,0 0,-1.9 -1.9,0 0,1.9 z m 3,0 1.9,0 0,-4.8 -1.9,0 0,4.8 z" /></svg>