<?xml version="1.0" encoding="utf-8"?>
<!-- Generator: Adobe Illustrator 16.0.0, SVG Export Plug-In . SVG Version: 6.00 Build 0)  -->
<!DOCTYPE svg PUBLIC "-//W3C//DTD SVG 1.1//EN" "http://www.w3.org/Graphics/SVG/1.1/DTD/svg11.dtd">
<svg version="1.1" xmlns="http://www.w3.org/2000/svg" xmlns:xlink="http://www.w3.org/1999/xlink" x="0px" y="0px"
	 width="32px" height="32px" viewBox="0 0 32 32" enable-background="new 0 0 32 32" xml:space="preserve">
<g>
	<path fill="#000000" d="M10.645,19.748c0.963,0,1.83-0.416,2.435-1.068l5.469,2.938c-0.059,0.251-0.097,0.517-0.097,0.788
		c0,1.836,1.492,3.321,3.326,3.321c1.83,0,3.323-1.485,3.323-3.321s-1.493-3.32-3.323-3.32c-0.965,0-1.834,0.41-2.441,1.066
		l-5.743-3.142l-0.045-1.697L19.464,12c0.602,0.577,1.412,0.936,2.313,0.936c1.83,0,3.323-1.491,3.323-3.326
		c0-1.835-1.493-3.322-3.323-3.322c-1.834,0-3.326,1.486-3.326,3.322c0,0.338,0.049,0.662,0.146,0.971l-5.646,3.453
		c-0.6-0.576-1.412-0.934-2.307-0.934c-1.838,0-3.323,1.486-3.323,3.321C7.321,18.264,8.807,19.748,10.645,19.748z"/>
</g>
</svg>
